<svg width="100" height="100" viewBox="0 0 100 100" fill="none" xmlns="http://www.w3.org/2000/svg">
<path d="M50 0C22.4 0 0 22.4 0 50C0 77.6 22.4 100 50 100C77.6 100 100 77.6 100 50C100 22.4 77.6 0 50 0ZM57 36.9C60.5 36.9 64.2 36.8 67.7 37C67.6 40.7 67.7 44.6 67.6 48.3C64.1 48.3 60.5 48.3 57 48.3C57 60 57 71.6 57 83.3C52 83.3 47 83.3 42 83.3C42 71.6 42 60 42 48.3C38.9 48.2 35.6 48.3 32.4 48.2C32.4 44.4 32.4 40.6 32.4 36.8C35.6 36.8 38.8 36.8 41.9 36.8C42 33.8 41.9 31.1 42.1 28.7C42.3 26.3 43.1 24.3 44.2 22.6C46.4 19.4 50 16.8 54.9 16.6C58.9 16.4 63.4 16.7 67.7 16.7C67.7 20.5 67.8 24.4 67.6 28.1C65.5 28.2 63.3 27.9 61.5 28.1C59.6 28.3 58.2 29.4 57.6 30.8C56.7 32.5 57 34.6 57 36.9Z" fill="#3E3E3E"/>
</svg>
