<svg width="100" height="100" viewBox="0 0 100 100" fill="none" xmlns="http://www.w3.org/2000/svg">
<path d="M50 0C22.4 0 0 22.4 0 50C0 77.6 22.4 100 50 100C77.6 100 100 77.6 100 50C100 22.4 77.6 0 50 0ZM81.8 61.2C81.2 63.4 81 64.1 80.7 64.7L80.5 65.1C77.8 71.3 71.8 75.3 59.4 76.6H41.8C30.2 75.3 23.6 71.3 20.3 65.2C20.3 65.2 20.2 65 20.1 64.8C19.8 64.2 19.5 63.5 19.2 62.8C19 62.5 19 62.6 19 62.3C17.8 59 17.3 55.2 17.3 50.9C17.3 45.3 19.3 40.7 22.7 37.1C22.2 35.8 20.4 30.5 23.2 23.5C23.2 23.5 27.5 22.1 37.4 28.8C41.5 27.7 46 27.1 50.3 27.1C54.3 27.1 58.3 27.6 62 28.5C68.9 23.9 73 23.3 74.7 23.3C75.4 23.3 75.7 23.4 75.7 23.4C78.1 29.4 77.2 34 76.6 36.1C80.3 39.8 82.6 44.7 82.6 50.8C82.7 55.2 82.4 59 81.8 61.2Z" fill="#3E3E3E"/>
<path d="M68.1 48.2C66.3 46.3 63.8 45.8 60.9 45.8C57.8 45.8 54.3 46.4 50.6 46.4C43.3 46.4 36.9 44.3 33.1 48.3C30.8 50.7 29.5 53.6 29.5 56.8C29.5 69.9 39 71.9 50.7 71.9C62.4 71.9 71.9 71.5 71.9 56.8C71.7 53.6 70.4 50.7 68.1 48.2ZM39.1 64.8C36.7 64.8 34.7 61.5 34.7 57.5C34.7 53.4 36.7 50.2 39.1 50.2C41.5 50.2 43.5 53.5 43.5 57.5C43.5 61.5 41.5 64.8 39.1 64.8ZM62.7 64.8C60.3 64.8 58.3 61.5 58.3 57.5C58.3 53.4 60.3 50.2 62.7 50.2C65.1 50.2 67.1 53.5 67.1 57.5C67.1 61.5 65.2 64.8 62.7 64.8Z" fill="#3E3E3E"/>
</svg>
