<svg width="100" height="100" viewBox="0 0 100 100" fill="none" xmlns="http://www.w3.org/2000/svg">
<path d="M50 0C22.4 0 0 22.4 0 50C0 77.6 22.4 100 50 100C77.6 100 100 77.6 100 50C100 22.4 77.6 0 50 0ZM36 75.3C32.5 75.3 29 75.3 25.5 75.3C25.5 64.1 25.5 52.9 25.5 41.7C25.5 41.6 25.5 41.5 25.6 41.5C29.1 41.5 32.6 41.5 36.1 41.5C36 52.7 36 64 36 75.3ZM27.3 35.9C25.7 34.8 24.4 32.5 24.7 29.8C25 27.8 26.4 26.1 27.9 25.3C28.4 25 29.1 24.8 29.9 24.8C33.9 24.3 36.9 27.1 36.9 30.9C36.8 35.5 31.5 38.7 27.3 35.9ZM75.4 75.3C71.9 75.3 68.4 75.3 64.9 75.3C64.9 71.5 64.9 67.5 64.9 63.2C64.9 58.1 65.6 52.2 62.1 50.4C60.4 49.5 58.1 49.8 56.6 50.4C52.8 52.1 53.1 57.5 53.1 63.4C53.1 67.5 53.1 71.8 53.1 75.3C49.6 75.3 46.1 75.3 42.6 75.3C42.6 64 42.6 52.7 42.6 41.5C46 41.5 49.3 41.5 52.7 41.5C52.7 43 52.7 44.6 52.7 46.1C53.1 45.8 53.2 45.4 53.5 45C55.3 42.6 58.5 40.6 62.6 40.6C67.8 40.6 71.5 42.4 73.4 45.7C75.4 49.2 75.4 54.1 75.4 59.6C75.4 64.7 75.4 70.3 75.4 75.3Z" fill="#3E3E3E"/>
</svg>
