<svg width="448" height="448" viewBox="0 0 448 448" fill="none" xmlns="http://www.w3.org/2000/svg">
<rect width="448" height="448" rx="34" fill="#252525"/>
<path d="M119.96 367C115.299 367 112.24 366.272 110.783 364.815C109.618 363.067 109.035 359.862 109.035 355.201V341.654H142.684C151.715 341.654 157.396 339.76 159.727 335.973C162.058 332.186 163.223 325.776 163.223 316.745V245.951C163.223 236.92 162.058 230.51 159.727 226.723C157.396 222.936 151.715 221.042 142.684 221.042H91.5549V367H56.5948V72.899C56.5948 68.2377 57.3232 65.1787 58.7799 63.722C60.5278 61.974 63.7325 61.1 68.3938 61.1H156.668C171.817 61.1 182.451 64.3046 188.569 70.714C194.978 76.832 198.183 87.4657 198.183 102.615V166.417C198.183 188.85 190.171 201.96 174.148 205.747V206.621C182.597 208.952 188.715 213.176 192.502 219.294C196.289 225.412 198.183 234.298 198.183 245.951V325.485C198.183 340.634 194.978 351.414 188.569 357.823C182.451 363.941 171.817 367 156.668 367H119.96ZM91.5549 86.446V195.696H145.306C152.881 195.405 157.688 193.365 159.727 189.578C162.058 185.499 163.223 179.236 163.223 170.787V111.355C163.223 102.324 162.058 95.9143 159.727 92.127C157.396 88.3397 151.715 86.446 142.684 86.446H91.5549Z" fill="white"/>
<path d="M345.821 213.176C354.852 213.176 360.533 211.282 362.864 207.495C365.194 203.708 366.36 197.298 366.36 188.267V111.355C366.36 102.324 365.194 95.9143 362.864 92.127C360.533 88.3397 354.852 86.446 345.821 86.446H294.692V355.201C294.692 359.862 293.818 363.067 292.07 364.815C290.613 366.272 287.554 367 282.893 367H259.732V72.899C259.732 68.2377 260.46 65.1787 261.917 63.722C263.665 61.974 266.869 61.1 271.531 61.1H359.805C374.954 61.1 385.588 64.3046 391.706 70.714C398.115 76.832 401.32 87.4657 401.32 102.615V197.007C401.32 212.156 398.115 222.936 391.706 229.345C385.588 235.463 374.954 238.522 359.805 238.522H323.097C318.435 238.522 315.376 237.794 313.92 236.337C312.754 234.589 312.172 231.384 312.172 226.723V213.176H345.821Z" fill="white"/>
</svg>
